<svg width="30" height="30" viewBox="0 0 30 30" fill="none" xmlns="http://www.w3.org/2000/svg">
<path d="M20.8995 13.5C18.9642 13.5 18.6963 15.4286 18.6963 15.4286H22.8079C22.8079 15.4286 22.8347 13.5 20.8995 13.5ZM11.5713 15.4286H7.92847V18.7768H11.3905C11.9128 18.7634 12.8905 18.6161 12.8905 17.1496C12.8905 15.4085 11.5713 15.4286 11.5713 15.4286Z" fill="#333D47"/>
<path d="M15 0C6.71652 0 0 6.71652 0 15C0 23.2835 6.71652 30 15 30C23.2835 30 30 23.2835 30 15C30 6.71652 23.2835 0 15 0ZM18.1607 9.21429H23.3237V10.7545H18.1607V9.21429ZM15.5491 17.3036C15.5491 21.1205 11.5714 21 11.5714 21H5.0625V8.47768H11.5714C13.5536 8.47768 15.1138 9.5692 15.1138 11.8125C15.1138 14.0558 13.2054 14.1964 13.2054 14.1964C15.7232 14.1964 15.5491 17.3036 15.5491 17.3036ZM25.2054 17.096H18.7165C18.7165 19.4196 20.9196 19.2723 20.9196 19.2723C23.0022 19.2723 22.9286 17.9263 22.9286 17.9263H25.1317C25.1317 21.5022 20.846 21.2545 20.846 21.2545C15.7098 21.2545 16.0379 16.4665 16.0379 16.4665C16.0379 16.4665 16.0312 11.6585 20.846 11.6585C25.9152 11.6652 25.2054 17.096 25.2054 17.096Z" fill="#333D47"/>
<path d="M12.4553 12.0067C12.4553 10.7076 11.5713 10.7076 11.5713 10.7076H7.92847V13.5001H11.3436C11.9329 13.5001 12.4553 13.3059 12.4553 12.0067Z" fill="#333D47"/>
</svg>
