<svg width="30" height="30" viewBox="0 0 30 30" fill="none" xmlns="http://www.w3.org/2000/svg">
<path d="M15 0C6.71652 0 0 6.89063 0 15.3817C0 22.1786 4.29911 27.9375 10.2589 29.9732C10.3425 29.9914 10.4278 30.0004 10.5134 30C11.0692 30 11.2835 29.5915 11.2835 29.2366C11.2835 28.8683 11.2701 27.904 11.2634 26.6183C10.7672 26.7346 10.2596 26.7953 9.75 26.7991C6.86384 26.7991 6.20759 24.5558 6.20759 24.5558C5.52455 22.7812 4.54018 22.3058 4.54018 22.3058C3.23438 21.3884 4.53348 21.3616 4.63393 21.3616H4.64062C6.14732 21.4955 6.9375 22.9554 6.9375 22.9554C7.6875 24.2679 8.69196 24.6362 9.58928 24.6362C10.1826 24.6243 10.7668 24.4874 11.3036 24.2344C11.4375 23.2433 11.8259 22.567 12.2545 22.1786C8.92634 21.7902 5.42411 20.471 5.42411 14.5781C5.42411 12.8973 6.0067 11.5246 6.96429 10.4531C6.81027 10.0647 6.29464 8.49777 7.11161 6.3817C7.22119 6.35547 7.33382 6.34421 7.44643 6.34821C7.98884 6.34821 9.21429 6.5558 11.2366 7.96205C13.6939 7.27454 16.2927 7.27454 18.75 7.96205C20.7723 6.5558 21.9978 6.34821 22.5402 6.34821C22.6528 6.34421 22.7654 6.35547 22.875 6.3817C23.692 8.49777 23.1763 10.0647 23.0223 10.4531C23.9799 11.5312 24.5625 12.904 24.5625 14.5781C24.5625 20.4844 21.0536 21.7835 17.7121 22.1652C18.2478 22.6406 18.7299 23.5781 18.7299 25.0112C18.7299 27.067 18.7098 28.7277 18.7098 29.2299C18.7098 29.5915 18.9174 30 19.4732 30C19.5632 30.0004 19.653 29.9914 19.7411 29.9732C25.7076 27.9375 30 22.1719 30 15.3817C30 6.89063 23.2835 0 15 0Z" fill="#333D47"/>
</svg>
