<svg width="30" height="30" viewBox="0 0 30 30" fill="none" xmlns="http://www.w3.org/2000/svg">
<path d="M21.2498 2.49978C22.906 2.50472 24.4929 3.16484 25.664 4.33595C26.8352 5.50707 27.4953 7.09402 27.5002 8.75022V21.2498C27.4953 22.906 26.8352 24.4929 25.664 25.664C24.4929 26.8352 22.906 27.4953 21.2498 27.5002H8.75022C7.09402 27.4953 5.50707 26.8352 4.33595 25.664C3.16484 24.4929 2.50472 22.906 2.49978 21.2498V8.75022C2.50472 7.09402 3.16484 5.50707 4.33595 4.33595C5.50707 3.16484 7.09402 2.50472 8.75022 2.49978H21.2498ZM21.2498 0H8.75022C3.9375 0 0 3.9375 0 8.75022V21.2498C0 26.0625 3.9375 30 8.75022 30H21.2498C26.0625 30 30 26.0625 30 21.2498V8.75022C30 3.9375 26.0625 0 21.2498 0Z" fill="#333D47"/>
<path d="M23.1248 8.75024C22.7539 8.75024 22.3914 8.64028 22.0831 8.43425C21.7747 8.22822 21.5344 7.93539 21.3925 7.59278C21.2506 7.25016 21.2135 6.87317 21.2858 6.50945C21.3582 6.14574 21.5367 5.81164 21.799 5.54942C22.0612 5.2872 22.3953 5.10862 22.759 5.03627C23.1227 4.96393 23.4997 5.00106 23.8423 5.14297C24.1849 5.28489 24.4778 5.52521 24.6838 5.83355C24.8898 6.14189 24.9998 6.5044 24.9998 6.87524C25.0003 7.12162 24.9522 7.36568 24.8581 7.5934C24.7641 7.82113 24.626 8.02804 24.4518 8.20225C24.2776 8.37647 24.0707 8.51456 23.8429 8.6086C23.6152 8.70264 23.3712 8.75077 23.1248 8.75024ZM15 9.9998C15.989 9.9998 16.9557 10.2931 17.778 10.8425C18.6003 11.3919 19.2412 12.1728 19.6196 13.0865C19.9981 14.0002 20.0971 15.0056 19.9041 15.9755C19.7112 16.9455 19.235 17.8364 18.5357 18.5357C17.8364 19.235 16.9454 19.7112 15.9755 19.9042C15.0055 20.0971 14.0002 19.9981 13.0865 19.6196C12.1728 19.2412 11.3919 18.6003 10.8425 17.778C10.293 16.9557 9.99978 15.989 9.99978 15C10.0012 13.6743 10.5285 12.4033 11.4659 11.4659C12.4033 10.5285 13.6743 10.0012 15 9.9998ZM15 7.50002C13.5166 7.50002 12.0666 7.93989 10.8332 8.764C9.59986 9.58811 8.63856 10.7594 8.07091 12.1299C7.50325 13.5003 7.35472 15.0083 7.64411 16.4632C7.9335 17.9181 8.64781 19.2544 9.6967 20.3033C10.7456 21.3522 12.082 22.0665 13.5368 22.3559C14.9917 22.6453 16.4997 22.4968 17.8701 21.9291C19.2406 21.3615 20.4119 20.4002 21.236 19.1668C22.0601 17.9334 22.5 16.4834 22.5 15C22.5 13.0109 21.7098 11.1032 20.3033 9.69672C18.8968 8.2902 16.9891 7.50002 15 7.50002Z" fill="#333D47"/>
</svg>
