<svg width="30" height="30" viewBox="0 0 30 30" fill="none" xmlns="http://www.w3.org/2000/svg">
<path d="M27.6006 0H2.56339C1.19531 0 0 0.984373 0 2.33638V27.4292C0 28.7886 1.19531 30 2.56339 30H27.5933C28.9687 30 30 28.7805 30 27.4292V2.33638C30.008 0.984373 28.9687 0 27.6006 0ZM9.29932 25.0064H5.00155V11.6437H9.29932V25.0064ZM7.2991 9.61204H7.26829C5.89285 9.61204 5.00222 8.58816 5.00222 7.30646C5.00222 6.00133 5.91629 5.00156 7.32253 5.00156C8.72878 5.00156 9.58927 5.99396 9.62007 7.30646C9.6194 8.58816 8.72878 9.61204 7.2991 9.61204ZM25.0064 25.0064H20.7087V17.7C20.7087 15.9495 20.0832 14.7536 18.5283 14.7536C17.3404 14.7536 16.6373 15.5571 16.3245 16.3399C16.2073 16.6212 16.1759 17.0042 16.1759 17.3953V25.0064H11.8781V11.6437H16.1759V13.5033C16.8013 12.6127 17.7783 11.331 20.0518 11.331C22.873 11.331 25.0071 13.1906 25.0071 17.1998L25.0064 25.0064Z" fill="#333D47"/>
</svg>
