<svg width="30" height="30" viewBox="0 0 30 30" fill="none" xmlns="http://www.w3.org/2000/svg">
<path d="M0 0V30H30V0H0ZM24.923 7.10789L23.3138 8.65066C23.2458 8.70256 23.1933 8.77199 23.1617 8.85149C23.1302 8.931 23.1209 9.01759 23.1349 9.10197V20.4362C23.1059 20.6079 23.175 20.7822 23.3138 20.8875L24.8849 22.4303V22.7691H16.9822V22.4303L18.6099 20.85C18.7697 20.6901 18.7697 20.6428 18.7697 20.3987V11.2375L14.2441 22.7316H13.6322L8.36316 11.2375V18.9414C8.31908 19.2651 8.42697 19.5914 8.65461 19.8257L10.7717 22.3934V22.7322H4.76908V22.3934L6.88618 19.8257C7.1125 19.5908 7.21382 19.2625 7.15921 18.9414V10.0329C7.18421 9.78553 7.09013 9.54079 6.90526 9.37434L5.02368 7.10724V6.76842H10.8664L15.3829 16.673L19.3533 6.76842H24.923V7.10789Z" fill="#333D47"/>
</svg>
